<?xml version="1.0" encoding="UTF-8"?>
<svg version="1.1" xmlns="http://www.w3.org/2000/svg" width="1000" height="1080">
<path d="M0 0 C7.40026222 -0.33058303 14.79861522 -0.55763351 22.20458984 -0.71411133 C24.72126387 -0.77935124 27.2374476 -0.86797179 29.75244141 -0.98071289 C49.95004616 -1.86321005 49.95004616 -1.86321005 54.83590698 1.12155151 C58.14169322 4.45872663 59.47707333 8.65752185 61 13 C62.13515784 15.03899624 63.31326933 17.05473301 64.53515625 19.04296875 C65.71285349 21.09004474 66.88857538 23.13825822 68.0625 25.1875 C69.04151113 26.89042782 70.02052547 28.5933538 70.99972534 30.2961731 C72.00447299 32.04395461 73.00839914 33.79220596 74.01220703 35.54052734 C77.1672263 41.03139237 80.33397963 46.51547345 83.5 52 C84.75006112 54.16663141 86.000061 56.33329814 87.25 58.5 C87.86875 59.5725 88.4875 60.645 89.125 61.75 C94.75 71.5 94.75 71.5 96.6262207 74.75219727 C97.8720577 76.91159395 99.11798818 79.07093669 100.36401367 81.23022461 C103.55348953 86.75767597 106.74116885 92.28615121 109.92578125 97.81640625 C116.89322882 109.91186046 123.88974723 121.98785531 131 134 C133.84718014 129.72922979 134.83054809 125.16695516 136.1875 120.25 C136.61579102 118.78433594 136.61579102 118.78433594 137.05273438 117.2890625 C137.31763672 116.33257812 137.58253906 115.37609375 137.85546875 114.390625 C138.09934326 113.52469727 138.34321777 112.65876953 138.59448242 111.76660156 C139.47944534 105.72903398 137.91848207 101.19943315 134.89453125 96.03515625 C134.24806641 94.91818359 133.60160156 93.80121094 132.93554688 92.65039062 C132.22806039 91.45431124 131.52037294 90.25835071 130.8125 89.0625 C130.08164289 87.80854794 129.35184003 86.55398087 128.62304688 85.29882812 C126.77508854 82.12191187 124.91450923 78.95260639 123.04986572 75.78546143 C121.48870112 73.13045601 119.93763175 70.46959737 118.38671875 67.80859375 C116.69229525 64.90140658 114.99695729 61.99480381 113.29663086 59.09106445 C108.4182858 50.75351671 103.6339349 42.36365322 98.86083984 33.96563721 C93.86398856 25.17898122 88.75326081 16.46975549 83.45263672 7.86230469 C82.9938916 7.11110352 82.53514648 6.35990234 82.0625 5.5859375 C81.66160156 4.9367334 81.26070313 4.2875293 80.84765625 3.61865234 C80 2 80 2 80 0 C87.40026222 -0.33058303 94.79861522 -0.55763351 102.20458984 -0.71411133 C104.72126387 -0.77935124 107.2374476 -0.86797179 109.75244141 -0.98071289 C129.94648972 -1.86305466 129.94648972 -1.86305466 134.8348999 1.11953735 C138.14234125 4.45557267 139.47566458 8.65798021 141 13 C142.14695441 15.0623557 143.3368643 17.10146093 144.5703125 19.11328125 C145.75697847 21.17867148 146.94182352 23.24510881 148.125 25.3125 C149.44088896 27.6031642 150.75719222 29.89358404 152.07421875 32.18359375 C152.73083496 33.32554199 153.38745117 34.46749023 154.06396484 35.64404297 C157.0001707 40.7337133 159.96888752 45.80418774 162.9375 50.875 C170.1844957 63.26569666 177.35055986 75.7062473 184.39160156 88.21533203 C185.34326481 89.86297486 186.32810913 91.4933231 187.38183594 93.07763672 C189.79253637 96.73286898 190.40067686 99.32885894 189.57324219 103.65673828 C189.38407227 104.43001465 189.19490234 105.20329102 189 106 C188.76700195 106.96534668 188.53400391 107.93069336 188.29394531 108.92529297 C187.44548553 112.27503651 186.54270111 115.60609327 185.625 118.9375 C185.32078125 120.06607422 185.0165625 121.19464844 184.703125 122.35742188 C182.99089675 128.64656793 181.12966445 134.83965161 179 141 C179.98226562 140.68977905 179.98226562 140.68977905 180.984375 140.37329102 C183.98740839 139.42927602 186.99362843 138.49582677 190 137.5625 C191.02996094 137.23701172 192.05992187 136.91152344 193.12109375 136.57617188 C198.77683959 134.82901472 204.09803808 133.503653 210 133 C215.37932954 141.62692609 220.5494377 150.34136632 225.5625 159.1875 C226.96765477 161.65817597 228.37451273 164.12788106 229.78125 166.59765625 C230.13417618 167.21775574 230.48710236 167.83785522 230.85072327 168.47674561 C234.39784056 174.70638085 237.97679664 180.9175022 241.5625 187.125 C242.17681885 188.18871826 242.7911377 189.25243652 243.42407227 190.34838867 C244.66292223 192.49309587 245.90193541 194.6377088 247.14111328 196.78222656 C250.26324605 202.18670645 253.38141204 207.59347412 256.5 213 C257.74998122 215.1666775 258.99998121 217.33334417 260.25 219.5 C262.75 223.83333333 265.25 228.16666667 267.75 232.5 C268.37003906 233.57411133 268.99007813 234.64822266 269.62890625 235.75488281 C270.86806926 237.90401574 272.10507894 240.0543918 273.33984375 242.20605469 C276.26141814 247.29101476 279.20344899 252.36040345 282.2232666 257.38757324 C283.64877251 259.76362942 285.06201836 262.14686624 286.47436523 264.53076172 C287.47688307 266.21124983 288.49704276 267.88117355 289.51757812 269.55078125 C290.12021484 270.57042969 290.72285156 271.59007812 291.34375 272.640625 C291.88193359 273.53297852 292.42011719 274.42533203 292.97460938 275.34472656 C294.28782982 278.74534217 293.98898987 280.51178318 293 284 C291.65234375 286.82983398 291.65234375 286.82983398 289.9375 289.74609375 C289.3091626 290.82455566 288.6808252 291.90301758 288.03344727 293.01416016 C287.36240967 294.1438623 286.69137207 295.27356445 286 296.4375 C285.31557911 297.60421779 284.63190652 298.77137486 283.94897461 299.93896484 C281.9788153 303.30029572 279.99132722 306.65116099 278 310 C277.21326904 311.32523682 277.21326904 311.32523682 276.41064453 312.67724609 C273.96071761 316.79730717 271.49297428 320.90584712 269 325 C264.66248604 323.55416201 263.70637328 320.28157201 261.6875 316.4375 C260.79155341 314.7786002 259.89297701 313.12111882 258.9921875 311.46484375 C258.50975586 310.57651855 258.02732422 309.68819336 257.53027344 308.77294922 C254.87708925 303.96521693 252.09242958 299.23521152 249.3125 294.5 C244.36747211 286.05781275 239.44771035 277.60195819 234.5625 269.125 C233.94028564 268.04541016 233.31807129 266.96582031 232.67700195 265.85351562 C231.41488483 263.6631748 230.15292215 261.47274498 228.89111328 259.28222656 C225.14348395 252.77782059 221.39095039 246.27624205 217.63842773 239.7746582 C214.43467538 234.22313708 211.23415423 228.66979203 208.0390625 223.11328125 C201.46078718 211.67967041 194.86060273 200.26700611 188 189 C182.90492612 189.5249805 178.47274715 190.32404055 173.625 192.0625 C168.17793594 194 168.17793594 194 166 194 C169.94040646 201.26337777 173.93296304 208.49426983 178 215.6875 C178.5583252 216.67516357 179.11665039 217.66282715 179.69189453 218.68041992 C184.27309445 226.76162596 188.93713304 234.79257062 193.62915039 242.80981445 C199.837196 253.41811048 205.97379721 264.06716947 212.10888672 274.71777344 C215.23680148 280.14659941 218.36857247 285.57319975 221.5 291 C225.29739963 297.58172877 229.09448093 304.16364072 232.890625 310.74609375 C233.53169189 311.855896 234.17275879 312.96569824 234.83325195 314.10913086 C236.09822173 316.30570874 237.35730687 318.50568734 238.61010742 320.70922852 C241.4737644 325.72992582 244.3898808 330.65929057 247.59765625 335.46875 C248.14260742 336.31381104 248.68755859 337.15887207 249.24902344 338.02954102 C250.25486167 339.57866383 251.2963684 341.10549465 252.37988281 342.60131836 C253.79767236 344.82580826 254.6148878 346.38550322 255 349 C253.68137971 353.08723931 251.34107049 356.42627369 249 360 C247.67115598 362.31127216 246.35725105 364.62731461 245.0546875 366.953125 C244.36476249 368.16230469 243.67334245 369.37063252 242.98046875 370.578125 C242.63419434 371.18205078 242.28791992 371.78597656 241.93115234 372.40820312 C241.58262207 373.01599609 241.2340918 373.62378906 240.875 374.25 C240.16526179 375.48952448 239.45562593 376.72910757 238.74609375 377.96875 C237.40908461 380.30435615 236.071435 382.63959123 234.73339844 384.97460938 C232.81958795 388.31488256 230.90891439 391.65692713 229 395 C228.34 395 227.68 395 227 395 C226.6282666 394.33170166 226.2565332 393.66340332 225.87353516 392.97485352 C216.5341651 376.19311466 216.5341651 376.19311466 206.88989258 359.5859375 C203.1477555 353.27328454 199.476237 346.92093194 195.8125 340.5625 C195.17521973 339.45672607 194.53793945 338.35095215 193.88134766 337.21166992 C191.9203862 333.8080747 189.96011785 330.40408111 188 327 C185.48004706 322.62449212 182.95930859 318.24943866 180.4375 313.875 C179.50502441 312.25742798 179.50502441 312.25742798 178.55371094 310.60717773 C174.41377995 303.43241198 170.2450821 296.27496657 166.0625 289.125 C160.64078822 279.85500223 155.29795085 270.54168248 149.98077393 261.21154785 C144.77954871 252.0871716 139.51972122 242.99867226 134.21655273 233.93310547 C128.06233258 223.40915375 121.97630004 212.84619863 115.89111328 202.28222656 C112.76319852 196.85340058 109.63141552 191.42680719 106.5 186 C105.24998121 183.83334417 103.99998122 181.6666775 102.75 179.5 C102.13125 178.4275 101.5125 177.355 100.875 176.25 C35.25 62.5 35.25 62.5 33.37353516 59.24731445 C32.12858718 57.08950197 30.8834711 54.93178647 29.63818359 52.77416992 C26.43447349 47.22283408 23.2340637 41.66963459 20.0390625 36.11328125 C18.73455203 33.84625229 17.42986738 31.57932355 16.125 29.3125 C15.50165771 28.22904297 14.87831543 27.14558594 14.23608398 26.02929688 C10.39015037 19.36074932 6.49542782 12.72612014 2.43603516 6.18481445 C0 2.21145814 0 2.21145814 0 0 Z " fill="#FCFCFC" transform="translate(272,302)"/>
<path d="M0 0 C97.68 0 195.36 0 296 0 C294.51514192 3.71214519 293.07451536 6.78201652 291.0859375 10.19140625 C290.2040979 11.71048584 290.2040979 11.71048584 289.30444336 13.26025391 C288.66772705 14.34999512 288.03101074 15.43973633 287.375 16.5625 C286.0076454 18.91451229 284.64263628 21.26788404 283.27734375 23.62109375 C282.9251326 24.22739624 282.57292145 24.83369873 282.21003723 25.45837402 C278.75486926 31.41022035 275.3448126 37.3874235 271.93875122 43.36746216 C266.09740096 53.62102681 260.19960249 63.83999933 254.24047852 74.02563477 C249.75839427 81.68913256 245.30944101 89.37137806 240.875 97.0625 C240.247146 98.15127441 239.61929199 99.24004883 238.97241211 100.36181641 C235.46461425 106.34262077 235.46461425 106.34262077 232.55319214 112.61962891 C231.18883539 114.97480251 230.52470657 115.83772326 227.89594078 116.65072536 C225.09014668 116.90622361 222.35735051 116.93081871 219.54003906 116.88647461 C218.47631577 116.89725037 217.41259247 116.90802612 216.31663513 116.91912842 C212.79893013 116.94654775 209.2833375 116.9246261 205.765625 116.90234375 C203.32752143 116.91172509 200.8894279 116.92418054 198.45135498 116.93959045 C192.03303628 116.97188196 185.61543046 116.96234958 179.19708252 116.94421387 C172.64823536 116.93307448 166.09957259 116.96134148 159.55078125 116.98632812 C146.70040743 117.02953225 133.85040093 117.02990727 121 117 C121.38809845 117.66418945 121.7761969 118.32837891 122.17605591 119.01269531 C123.97465879 122.09149497 125.77248834 125.17074556 127.5703125 128.25 C128.18044189 129.29414063 128.79057129 130.33828125 129.41918945 131.4140625 C135.34770422 141.57051344 141.18798515 151.77653357 147 162 C147.66 162 148.32 162 149 162 C153.29 154.41 157.58 146.82 162 139 C179.82 139 197.64 139 216 139 C212.04555433 146.90889133 208.05605359 154.54580824 203.5625 162.125 C202.32231764 164.23402286 201.08275562 166.34341061 199.84375 168.453125 C198.89242187 170.07057617 198.89242187 170.07057617 197.921875 171.72070312 C194.77515892 177.08994733 191.66841381 182.48208191 188.5625 187.875 C187.62966187 189.49365967 187.62966187 189.49365967 186.67797852 191.14501953 C185.41550269 193.33582951 184.15321444 195.5267476 182.89111328 197.71777344 C179.14856359 204.21336316 175.40099757 210.70606042 171.65380859 217.19897461 C168.71817241 222.28625032 165.78383388 227.37426104 162.85409546 232.4649353 C161.46671905 234.87543748 160.07860376 237.28551376 158.69042969 239.69555664 C157.70826185 241.40143968 156.72716615 243.10793986 155.74609375 244.81445312 C155.153125 245.84376953 154.56015625 246.87308594 153.94921875 247.93359375 C153.42674561 248.84165771 152.90427246 249.74972168 152.3659668 250.68530273 C151.30022034 252.49126201 150.16319248 254.25521129 149 256 C148.34 256 147.68 256 147 256 C146.08203125 254.40885417 145.1640625 252.81770833 144.24609375 251.2265625 C143.34709351 249.66832764 143.34709351 249.66832764 142.42993164 248.07861328 C141.08138671 245.74109133 139.73290632 243.40353227 138.38452148 241.06591797 C135.00032899 235.19915714 131.61514162 229.33297885 128.2265625 223.46875 C122.1088915 212.87846862 116.01044742 202.27784131 109.95184326 191.65368652 C104.09598665 181.38523636 98.19110819 171.1472588 92.22290039 160.94360352 C83.37118023 145.80604317 74.62080545 130.60973782 65.9375 115.375 C61.51708893 107.62366812 57.05329177 99.89827124 52.5625 92.1875 C51.98298584 91.19089355 51.40347168 90.19428711 50.80639648 89.16748047 C47.93552786 84.24802083 45.02504725 79.38858325 41.86303711 74.6496582 C41 73 41 73 41 70 C94.46 70 147.92 70 203 70 C203.66 68.35 204.32 66.7 205 65 C208.3 59.39 211.6 53.78 215 48 C121.445 47.505 121.445 47.505 26 47 C20.555 37.1 20.555 37.1 15 27 C8.15924743 15.21505328 8.15924743 15.21505328 0.93115234 3.67285156 C0 2 0 2 0 0 Z " fill="#FBFBFB" transform="translate(432,302)"/>
</svg>
